<svg width="78" height="24" viewBox="0 0 78 24" fill="none" xmlns="http://www.w3.org/2000/svg">
<path d="M0.100155 0.113525H8.91393V2.57506H3.20501V10.2674H7.81221V12.6263H3.20501V21.2417H8.91393V23.6007H0V0.113525H0.100155Z" fill="#111111"/>
<path d="M11.518 0.113525H13.7214L20.2316 15.6007V0.113525H22.8357V23.4981H20.8326L14.2222 7.49814V23.4981H11.518V0.113525Z" fill="#111111"/>
<path d="M25.8404 0.113525H34.6541V2.57506H28.9452V10.2674H33.5524V12.6263H28.9452V21.2417H34.6541V23.6007H25.8404V0.113525Z" fill="#111111"/>
<path d="M37.2582 0.113508H41.8654C43.6778 -0.0146949 45.4789 0.491619 46.9734 1.54941C48.0751 2.47248 48.5759 4.11351 48.5759 6.26735C48.5759 9.24171 47.6745 11.0879 45.7715 11.7033L48.9765 23.3956H45.8717L42.867 12.4212H40.3631V23.3956H37.1581V0.113508H37.2582ZM41.6651 10.1648C42.6976 10.2519 43.7268 9.96118 44.5696 9.34428C45.1706 8.83146 45.471 7.80582 45.471 6.26735C45.4988 5.5031 45.3971 4.73969 45.1706 4.01094C44.9451 3.48802 44.558 3.05555 44.0688 2.78017C43.379 2.45827 42.6217 2.31728 41.8654 2.36992H40.4632V10.0622H41.6651V10.1648Z" fill="#111111"/>
<path d="M52.5821 21.7546C51.541 19.9613 51.0523 17.8881 51.18 15.8059V8.01098C51.1553 6.52466 51.3237 5.04158 51.6807 3.60072C52.0159 2.52402 52.6838 1.58809 53.5837 0.934055C54.702 0.256183 55.9921 -0.0651752 57.2895 0.0109781C59.3928 0.0109781 60.8951 0.523799 61.7965 1.652C62.8335 3.14173 63.3295 4.95568 63.1987 6.78021V7.60072H60.194V6.88277C60.1986 6.0238 60.1316 5.16599 59.9937 4.31867C59.9093 3.78323 59.6212 3.30383 59.1925 2.98534C58.6295 2.60694 57.9614 2.4269 57.2895 2.47252C56.5714 2.42539 55.8606 2.64376 55.2864 3.0879C55.0508 3.2912 54.8582 3.5416 54.7204 3.82378C54.5827 4.10595 54.5026 4.41396 54.4851 4.72893C54.3531 5.64584 54.2862 6.57134 54.2848 7.49816V16.2161C54.211 17.5443 54.4159 18.8733 54.8858 20.1135C55.2864 20.9341 56.0876 21.2417 57.2895 21.2417C57.7641 21.3023 58.2455 21.2178 58.6732 20.9988C59.1009 20.7798 59.4559 20.4361 59.6933 20.011C60.2224 18.714 60.462 17.3123 60.3944 15.9084V14.2674H57.4898V11.9084H63.2989V23.4982H61.2958L60.9953 20.8315C60.7327 21.7252 60.186 22.5034 59.4419 23.0423C58.6979 23.5812 57.7992 23.85 56.8889 23.8059C56.0613 23.8557 55.2346 23.6944 54.4829 23.3363C53.7312 22.9783 53.0781 22.4348 52.5821 21.7546Z" fill="#111111"/>
<path d="M69.7089 15.293L64.8012 0.216064H67.8059L71.3114 11.4981L74.7167 0.216064H77.7214L72.8138 15.293V23.4981H69.8091V15.293H69.7089Z" fill="#111111"/>
</svg>
