<svg width="42" height="25" viewBox="0 0 42 25" fill="none" xmlns="http://www.w3.org/2000/svg">
<path d="M1.62387 22.0513C0.48969 20.3682 -0.0733255 18.3503 0.0213619 16.3077V7.79487C-0.115985 5.73031 0.411775 3.67661 1.52371 1.94872C2.62543 0.615385 4.32809 0 6.832 0C9.33592 0 10.9384 0.615385 11.94 1.74359C13.0274 3.17255 13.5622 4.96181 13.4423 6.76923V8.82051H8.53467V6.46154C8.5743 5.76385 8.47198 5.06533 8.23419 4.41026C8.10709 4.14583 7.90565 3.9264 7.65576 3.78018C7.40588 3.63395 7.11899 3.56763 6.832 3.58974C6.13091 3.58974 5.63013 3.79487 5.42981 4.30769C5.20324 5.03643 5.10158 5.79984 5.12934 6.5641V17.5385C5.07645 18.2799 5.2146 19.0227 5.52997 19.6923C5.73028 20.2051 6.23106 20.4103 6.93216 20.4103C7.63326 20.4103 8.03388 20.2051 8.23419 19.6923C8.46191 18.9992 8.56375 18.2692 8.53467 17.5385V15.0769H13.4423V17.1282C13.5442 18.9651 13.0124 20.7803 11.94 22.2564C10.9384 23.4872 9.23576 24.1026 6.832 24.1026C4.42825 24 2.62543 23.3846 1.62387 22.0513Z" fill="#111111"/>
<path d="M19.3515 0.307617H25.0604L29.267 23.6922H24.6598L23.8586 18.7692H20.5534L19.7522 23.6922H15.0448L19.3515 0.307617ZM23.4579 15.6922L22.2561 6.56403L21.0542 15.6922H23.4579Z" fill="#111111"/>
<path d="M32.7725 4.20505H29.3672V0.307617H41.2858V4.10249H37.8805V23.6922H32.7725V4.20505Z" fill="#111111"/>
</svg>
