<?xml version="1.0" encoding="utf-8"?>
<svg xmlns="http://www.w3.org/2000/svg">

  <style>
    :root > svg {
      display: none;
    }

    :root > svg:target {
      display: block;
    }
  </style>

<svg id="facebook" class="facebook" viewBox="0 0 28 33" fill="none">
  <path d="M21 2.75h-3.5c-1.55 0-3.03.71-4.12 1.97a7.3 7.3 0 00-1.71 4.77v4.05h-3.5v5.39h3.5V29.7h4.66V18.93h3.5l1.17-5.4h-4.67V9.5c0-.36.13-.7.35-.95.21-.26.51-.4.82-.4H21V2.75z" stroke="#666" stroke-width="1.1" stroke-linecap="round" stroke-linejoin="round"/>
</svg>
<svg id="vk" class="vk" viewBox="0 0 30 22" fill="none">
  <path d="M.1 5.49c0-.86.54-1.32 1.65-1.38L6 4.13c.29 0 .48.13.57.38.44 1.26.93 2.34 1.47 3.26.54.9 1.25 1.96 2.13 3.15.07.15.2.23.37.23.13 0 .24-.06.31-.18l.09-.27.03-4.36c0-.3-.08-.5-.25-.6-.16-.1-.46-.17-.9-.22-.34-.06-.5-.24-.5-.56 0-.07 0-.12.02-.15.4-1.09 1.54-1.63 3.43-1.63l1.6-.03c.72 0 1.32.16 1.8.48.47.32.7.82.7 1.5v5.72a.7.7 0 00.38.12c.28 0 .53-.15.74-.45 2.1-2.58 3.23-4.3 3.4-5.18l.05-.13c.14-.25.36-.47.66-.65.3-.19.57-.31.8-.38a.63.63 0 01.26-.05h4.42l.29.03a1 1 0 01.88.47c.08.1.13.21.16.33a2.26 2.26 0 01.07.56v.17a5.9 5.9 0 01-1.01 2.2c-.55.78-1.24 1.62-2.07 2.53-.84.9-1.36 1.5-1.57 1.78-.17.2-.26.39-.26.56 0 .13.08.28.23.45l4.17 4.63c.22.27.34.56.34.88 0 .38-.17.7-.51.95-.35.25-.76.4-1.23.43l-.49.03h-4.34a1 1 0 00-.11 0l-.11.02c-.42 0-.81-.16-1.18-.48a245.7 245.7 0 01-2.68-2.96c-.1-.12-.23-.23-.4-.33l-.3 1.16-.27 1.08-.09.42c-.19.6-.58.94-1.2 1.06l-.4.03h-2.8c-1.57 0-3.15-.64-4.72-1.92a19.62 19.62 0 01-4.23-4.94A46.13 46.13 0 01.23 6.22a1.8 1.8 0 01-.14-.73zM17.24 12c-.4 0-.76-.1-1.09-.29-.32-.19-.48-.45-.48-.79V5.14c0-.34-.1-.58-.29-.72-.19-.14-.52-.21-1-.21l-1.62.05c-.82 0-1.44.12-1.86.37.84.36 1.26.93 1.26 1.71v4.43c-.04.42-.23.77-.57 1.04-.35.28-.73.42-1.15.42-.57 0-1-.24-1.3-.73a25.68 25.68 0 01-3.32-5.63l-.26-.66-3.8-.02c-.24 0-.38.01-.4.04-.04.02-.05.1-.05.21 0 .15.02.31.06.48l.6 1.4c1.6 3.64 3.33 6.51 5.2 8.6 1.88 2.1 3.72 3.15 5.53 3.15h2.85c.12 0 .2-.03.26-.09s.1-.17.14-.34l.06-.25.54-2.21c.15-.3.29-.5.4-.6.21-.19.46-.28.74-.28.46 0 .93.24 1.4.73l2.43 2.71c.15.22.31.33.48.33h4.72c.57 0 .85-.13.85-.38a.44.44 0 00-.08-.25l-4.14-4.55a1.65 1.65 0 01-.49-1.13c0-.4.15-.79.46-1.16.25-.33.73-.9 1.44-1.67.71-.78 1.34-1.51 1.87-2.19.53-.68.88-1.3 1.06-1.85l.08-.32a.35.35 0 01-.03-.17c0-.07 0-.14-.03-.19h-4.48c-.28.1-.51.25-.68.46l-.17.47c-.48 1.16-1.73 2.95-3.74 5.36-.4.34-.87.5-1.4.5z" fill="#666"/>
</svg>
<svg id="insta" class="insta" viewBox="0 0 23 23" fill="none">
  <path d="M11.48.09c1.91 0 3.48.02 4.7.07 1.03.04 1.95.22 2.75.54a5.73 5.73 0 013.33 3.32c.31.8.5 1.73.54 2.76.04 1.22.07 2.78.07 4.7 0 1.91-.03 3.48-.07 4.7a8.63 8.63 0 01-.54 2.75 5.73 5.73 0 01-3.33 3.33c-.8.31-1.72.5-2.76.54-1.21.04-2.78.07-4.7.07-1.9 0-3.47-.03-4.69-.07a8.63 8.63 0 01-2.76-.54A5.73 5.73 0 01.7 18.93c-.32-.8-.5-1.72-.54-2.76-.05-1.21-.07-2.78-.07-4.7 0-1.9.02-3.47.07-4.69C.2 5.75.38 4.83.7 4.02A5.73 5.73 0 014.02.7C4.82.38 5.75.2 6.78.16 8 .1 9.56.09 11.48.09zm0 1.48c-2 0-3.62.02-4.88.07-.8.03-1.55.17-2.24.43a4.1 4.1 0 00-2.3 2.29c-.25.69-.39 1.43-.42 2.24-.05 1.26-.07 2.89-.07 4.88 0 1.99.02 3.61.07 4.87.03.81.17 1.56.43 2.25a4.1 4.1 0 002.29 2.29c.69.25 1.43.4 2.24.43 1.26.04 2.89.06 4.88.06 1.99 0 3.61-.02 4.87-.06.81-.03 1.56-.18 2.25-.43a4.1 4.1 0 002.29-2.3c.25-.68.4-1.43.43-2.24.04-1.26.06-2.88.06-4.87 0-2-.02-3.62-.06-4.88a7.21 7.21 0 00-.43-2.24 4.1 4.1 0 00-2.3-2.3 7.21 7.21 0 00-2.24-.42c-1.26-.05-2.88-.07-4.87-.07zm0 14.47a4.4 4.4 0 003.22-1.34 4.4 4.4 0 001.34-3.22 4.4 4.4 0 00-1.34-3.23 4.4 4.4 0 00-3.22-1.33 4.4 4.4 0 00-3.23 1.33 4.4 4.4 0 00-1.33 3.23 4.4 4.4 0 001.33 3.22 4.4 4.4 0 003.23 1.34zm0-10.4c1.61 0 3 .57 4.13 1.7a5.63 5.63 0 011.7 4.14c0 1.61-.56 3-1.7 4.13a5.63 5.63 0 01-4.13 1.7c-1.62 0-3-.56-4.14-1.7a5.63 5.63 0 01-1.7-4.13c0-1.62.57-3 1.7-4.14a5.63 5.63 0 014.14-1.7zm7.45-.23a1.36 1.36 0 01-1.4 1.35c-.36 0-.68-.13-.94-.4a1.3 1.3 0 01-.4-.95 1.36 1.36 0 011.35-1.39c.38 0 .7.14.98.42.28.27.41.6.41.97z" fill="#666"/>
</svg>
<svg id="tel" class="tel" viewBox="0 0 20 20" fill="none">
  <g clip-path="url(#clip0)" fill="#000">
    <path d="M17.9 9.4H9.4v1.2h8.5l-2.1 2.1.9.9 3.1-3.1a.75.75 0 000-.9l-3.1-3.1-.9.9 2.1 2zM8.1 19.4v-6.2a.65.65 0 00-.6-.6H3.1a1.22 1.22 0 001.2 1.2h2.5v5H3.1a1.79 1.79 0 01-1.9-1.7v-14a1.77 1.77 0 011.7-1.8h3.9v5H4.4a1.22 1.22 0 00-1.2 1.2h4.4a.65.65 0 00.6-.6V.6a.86.86 0 00-.7-.6H3.1A3 3 0 000 2.9v13.9a2.89 2.89 0 002.9 3.1h4.6a.5.5 0 00.6-.5z"/>
  </g>
  <defs>
    <clipPath id="clip0">
      <path fill="#fff" d="M0 0h20v20H0z"/>
    </clipPath>
  </defs>
</svg>
<svg id="mail" class="mail" viewBox="0 0 19 14" fill="none">
  <path stroke="#222" stroke-width="1.3" d="M1.18 6v8M18.18 6v8M.53 13.35h18M.53 1.35h18M17.88 3.18l-8.35 6.5-8.35-6.5V1.65h16.7v1.53z"/>
</svg>
<svg id="cat" class="cat" viewBox="0 0 42 25" fill="none">
  <path d="M1.62 22.05a9.5 9.5 0 01-1.6-5.74V7.79a9.63 9.63 0 011.5-5.84C2.62.62 4.32 0 6.83 0c2.5 0 4.1.62 5.11 1.74a7.49 7.49 0 011.5 5.03v2.05h-4.9V6.46c.03-.7-.07-1.4-.3-2.05a1.46 1.46 0 00-.58-.63 1.41 1.41 0 00-.83-.19c-.7 0-1.2.2-1.4.72-.23.73-.33 1.49-.3 2.25v10.98c-.05.74.08 1.48.4 2.15.2.52.7.72 1.4.72s1.1-.2 1.3-.72c.23-.7.33-1.42.3-2.15v-2.46h4.91v2.05a7.98 7.98 0 01-1.5 5.13c-1 1.23-2.7 1.84-5.1 1.84-2.41-.1-4.21-.72-5.22-2.05zM19.35.3h5.71l4.2 23.4h-4.6l-.8-4.93h-3.3l-.8 4.92h-4.72L19.35.31zm4.1 15.4l-1.2-9.14-1.2 9.13h2.4zM32.77 4.2h-3.4V.3h11.92v3.8h-3.41v19.6h-5.1V4.2z" fill="#111"/>
</svg>
<svg id="energy" class="energy" viewBox="0 0 78 24" fill="none">
  <path d="M.1.11h8.81v2.47h-5.7v7.69h4.6v2.36h-4.6v8.61h5.7v2.36H0V.11h.1zM11.52.11h2.2l6.51 15.5V.1h2.6V23.5h-2l-6.6-16v16h-2.71V.1zM25.84.11h8.81v2.47h-5.7v7.69h4.6v2.36h-4.6v8.61h5.7v2.36h-8.81V.11zM37.26.11h4.6a7.87 7.87 0 015.11 1.44c1.1.92 1.6 2.56 1.6 4.72 0 2.97-.9 4.82-2.8 5.43l3.2 11.7h-3.1l-3-10.98h-2.5V23.4h-3.21V.1h.1zm4.4 10.05a4.3 4.3 0 002.91-.82c.6-.5.9-1.53.9-3.07a6.78 6.78 0 00-.3-2.26 2.58 2.58 0 00-1.1-1.23 4.47 4.47 0 00-2.2-.41h-1.4v7.7h1.2v.1zM52.58 21.75a10.57 10.57 0 01-1.4-5.94V8c-.02-1.49.14-2.97.5-4.4a5.2 5.2 0 011.9-2.68c1.12-.67 2.41-1 3.7-.92 2.11 0 3.62.51 4.52 1.64a7.98 7.98 0 011.4 5.13v.82h-3v-.72c0-.86-.07-1.71-.2-2.56a2.06 2.06 0 00-.8-1.33 3.04 3.04 0 00-1.91-.52 2.96 2.96 0 00-2 .62 2.31 2.31 0 00-.8 1.64c-.14.92-.2 1.84-.2 2.77v8.72a9.52 9.52 0 00.6 3.9c.4.81 1.2 1.12 2.4 1.12a2.37 2.37 0 002.4-1.23c.53-1.3.77-2.7.7-4.1v-1.64h-2.9V11.9h5.8V23.5h-2l-.3-2.67c-.26.9-.8 1.67-1.55 2.21-.74.54-1.64.81-2.55.77a4.9 4.9 0 01-4.3-2.06zM69.7 15.3L64.8.21h3l3.51 11.28L74.71.22h3.01l-4.9 15.07v8.2H69.8v-8.2h-.1z" fill="#111"/>
</svg>
<svg id="academy" class="academy" viewBox="0 0 113 16" fill="none">
  <path d="M.28 12V.55H1.8v4.7h5.95V.55h1.52V12H7.75V6.6H1.8V12H.28zm14.43 0V1.9h-3.77V.55h9.08V1.9h-3.8V12h-1.5zm6.82 0V.55h2.28l2.71 8.1.55 1.7c.13-.42.33-1.03.61-1.83L30.42.55h2.04V12H31V2.41L27.67 12H26.3L23 2.25V12h-1.47zm13.31 0V.55h1.52v10.1H42V12h-7.16zm10.68 0L49.92.55h1.63L56.25 12h-1.73l-1.34-3.47h-4.79L47.13 12h-1.6zm3.3-4.7h3.9l-1.2-3.17c-.37-.97-.64-1.76-.82-2.38-.14.73-.35 1.46-.61 2.19L48.83 7.3zM62.7 8.96l1.38.18a3.6 3.6 0 01-1.16 2.24c-.62.54-1.39.8-2.3.8a3.58 3.58 0 01-2.73-1.1c-.7-.75-1.04-1.81-1.04-3.2 0-.9.15-1.68.45-2.35.3-.67.75-1.17 1.35-1.5.61-.35 1.27-.51 1.98-.51.9 0 1.64.22 2.22.68.57.46.94 1.1 1.1 1.94l-1.37.21a2.26 2.26 0 00-.7-1.26 1.77 1.77 0 00-1.19-.42c-.7 0-1.28.26-1.73.77-.44.5-.66 1.3-.66 2.4 0 1.12.21 1.93.64 2.43.43.5.98.76 1.67.76.55 0 1.01-.17 1.38-.5.37-.35.6-.87.7-1.57zm8 2.02c-.52.44-1.03.75-1.51.93-.48.19-1 .28-1.55.28-.9 0-1.6-.22-2.1-.67a2.22 2.22 0 01-.73-1.7 2.27 2.27 0 011-1.93c.3-.2.64-.36 1.01-.46.28-.07.7-.14 1.25-.21 1.14-.14 1.97-.3 2.51-.49v-.36c0-.58-.12-.98-.39-1.21-.36-.32-.9-.48-1.6-.48-.66 0-1.15.12-1.47.35-.31.23-.54.64-.7 1.23l-1.37-.19c.12-.59.33-1.06.62-1.42.28-.37.7-.64 1.24-.84.54-.2 1.17-.3 1.88-.3s1.29.09 1.73.26c.44.16.77.37.97.63.21.25.36.57.44.95.05.24.07.67.07 1.3v1.87c0 1.31.03 2.14.09 2.49.06.34.18.67.36.99h-1.47c-.15-.3-.24-.63-.28-1.02zm-.12-3.14c-.51.2-1.28.38-2.3.53-.57.08-.98.17-1.22.28a1.21 1.21 0 00-.75 1.12c0 .38.14.7.42.94.29.25.7.38 1.25.38.54 0 1.02-.12 1.44-.36.43-.24.74-.56.93-.97.15-.32.23-.79.23-1.4v-.52zm9 4.16v-1.05a2.58 2.58 0 01-2.33 1.24c-.66 0-1.27-.18-1.83-.55a3.64 3.64 0 01-1.28-1.52c-.3-.66-.46-1.41-.46-2.26 0-.83.14-1.58.42-2.25a3.26 3.26 0 013.09-2.1 2.74 2.74 0 012.29 1.15V.55h1.4V12h-1.3zm-4.45-4.14c0 1.06.22 1.86.67 2.38.45.53.98.8 1.58.8.62 0 1.14-.26 1.57-.76.43-.5.65-1.27.65-2.3 0-1.14-.22-1.97-.66-2.5a2.02 2.02 0 00-3.19-.03c-.41.5-.62 1.31-.62 2.4zm13.65 1.47l1.45.18c-.23.85-.65 1.5-1.27 1.97s-1.42.7-2.38.7a3.82 3.82 0 01-2.89-1.11 4.4 4.4 0 01-1.06-3.15c0-1.4.36-2.48 1.08-3.25a3.65 3.65 0 012.8-1.15c1.1 0 2 .37 2.71 1.13a4.5 4.5 0 011.06 3.19l-.01.37h-6.19c.05.91.31 1.61.77 2.1a2.3 2.3 0 001.74.72c.51 0 .95-.13 1.32-.4.36-.28.65-.7.87-1.3zm-4.62-2.28h4.63a2.81 2.81 0 00-.53-1.57 2.16 2.16 0 00-1.74-.8c-.65 0-1.2.2-1.64.64a2.58 2.58 0 00-.72 1.73zM91.99 12V3.7h1.26v1.17a2.92 2.92 0 012.52-1.35c.61 0 1.11.12 1.5.38.4.25.68.61.84 1.07a2.98 2.98 0 012.56-1.45c.83 0 1.46.22 1.9.68.44.46.66 1.16.66 2.1V12h-1.4V6.77c0-.56-.04-.96-.14-1.2a1.15 1.15 0 00-.49-.6 1.96 1.96 0 00-2.3.36c-.38.38-.57 1-.57 1.85V12h-1.4V6.6c0-.62-.12-1.08-.35-1.4-.23-.3-.6-.47-1.13-.47-.4 0-.76.1-1.1.32-.33.2-.57.51-.72.91-.16.4-.23.98-.23 1.74V12H92zm13.27 3.2l-.16-1.32c.3.08.58.12.8.12.32 0 .57-.05.76-.16.18-.1.34-.25.46-.43.09-.14.23-.5.43-1.05l.12-.34-3.15-8.32h1.52l1.73 4.8c.22.62.42 1.26.6 1.93.16-.65.35-1.28.57-1.9l1.78-4.83h1.4l-3.15 8.44c-.34.91-.6 1.54-.79 1.88-.25.47-.54.8-.86 1.02-.32.22-.7.33-1.16.33-.27 0-.57-.06-.9-.17z" fill="#444"/>
</svg>
<svg id="logo-html" class="logo-html" viewBox="0 0 27 34" fill="none">
  <path d="M13.64.02L13.5 0 0 1.4v24.61L13.5 34 27 26.01V1.41L13.64 0zm11.6 25L13.5 31.96 1.77 25.02v-10.1l11.68 6.93.02 1.25-8.02-4.75v1.23l8.04 4.8.02 1.3-8.05-4.76v1.22l8.04 4.81 8.12-4.83V16.9l3.62-2.15v10.26zm0-11.57L22 15.33l-1.48.88-7.06-4.19-.01 1.23 6.04 3.57-.06.03-.13.07-.86.5-4.98-2.95-.01 1.22 3.93 2.33-.93.61-.02.01-2.97-1.74-.01 1.23 1.94 1.13-1.98 1.19L1.8 13.58l11.63-6.96 11.8 6.83zm0-1.22L13.43 5.3 1.77 12.22V2.99L13.5 1.76 25.23 3v9.24z" fill="#666"/>
</svg>
<svg id="desktop" viewBox="0 0 70 66">
    <use href="#mark"/>
  </svg>
  <svg id="tablet" viewBox="0 0 70 66" style="--tablet-hidden: transparent;">
    <use href="#mark"/>
  </svg>
  <svg id="mobile" viewBox="19 2 34 38" style="--mobile-hidden: transparent;
  overflow: hidden;">
    <use href="#mark"/>
  </svg>
  <svg id="logotype" viewBox="84.24 22.11 117.77 21.37">
    <use href="#logo"/>
  </svg>

  <svg id="full" viewBox="0 0 203 66">
    <g id="mark">
      <path id="sun_small" d="M52.96 25.2c0 9.157-7.459 16.58-16.66 16.58S19.64 34.357 19.64 25.2c0-9.157 7.459-16.58 16.66-16.58s16.66 7.423 16.66 16.58z" fill="#FDC305"/>
      <path id="sun_big" d="M61.84 33.595C61.84 47.625 50.378 59 36.24 59c-14.139 0-25.6-11.374-25.6-25.405 0-14.03 11.462-25.405 25.6-25.405 14.139 0 25.6 11.374 25.6 25.405z" fill="var(--mobile-hidden, #FDC305)"/>
      <path id="cloak" d="M50.892 42.762c-.8-1.17-3.46-1.666-5.27-1.865-6.622 1.865-10.82 2.252-16.97-.05a6.095 6.095 0 0 0-4.38 1.29 18.248 18.248 0 0 0-2.65 2.341l-.531-3.829s-.15-2.242-2.27-2.103a38.924 38.924 0 0 0-5.63 1.101s.25-4.106-5-4.632A46.196 46.196 0 0 0 0 34.777s9.55-6.507 15-9.324c6.5-3.36 38-5.679 41.463-3.958a43.672 43.672 0 0 1 13.7 10.653c-11.18-2.49-11.46 7.222-11.46 7.222-8.1-3.73-7.81 3.392-7.81 3.392z" fill="var(--mobile-hidden, #F06351)"/>
      <path id="body" d="M42.051 58.306c.325-.344.604-.727.83-1.141.7-1.25 1.85-5.763 2.4-9.989.17-1.294.288-3.485.31-4.414.12-4.9-.1-11.308-.1-13.004 0-1.963.175-2.147.995-3.01.121-.126.256-.268.406-.432 1.35-1.518 6.46-5 7.18-4.96.72.04 2.65 3.442 2.65 3.442s.04.903.19 2.192c.15 1.29 1.06 1.002 1.5.576v-.01a6.17 6.17 0 0 0 .87-1.825 27.714 27.714 0 0 0-1.83-2.976c-.19-.29-1.526-1.948-2.244-2.838-.317-.394-.604-.906-1.176-.892-2.815.15-5.576.823-8.14 1.984v-1.815a83.028 83.028 0 0 0-20.241 1.329l-.05 2.252s-6.17-.328-7.28-.427c-1.11-.099-1.25.238-1.25.238-.832.847-1.448 1.846-2.07 2.867a22.56 22.56 0 0 0-1.82 3.71c-.63 1.676-.51 3.104.29 3.104s2.05.05 2-.426a7.041 7.041 0 0 0-.48-1.438 5.065 5.065 0 0 1 1.73-3.82c1.182-1.039 2.564-1.02 4-.624 1.4.387 5.21 1.815 5.21 1.815l2.71 13.064 1 5.783 1.18 5.307c.52 2.43 1.11 4.721 1.69 6.794.547 1.955 3.39 7.378 3.989 6.778 1-1-.382-2.674-.639-6.51-.16-2.39-.28-4.533-.28-4.533 0-4.036 7.15-6.5 6.86-4.037-.104 1.402-.48 3.31-.81 4.983-.175.894-.339 1.72-.44 2.367-.045.25-.045.505 0 .754.309.476.692-.04.86-.218z" fill="#fff"/>

      <g id="print">
        <path d="M36.262 37.99c2.07 0 3.75-1.665 3.75-3.719s-1.68-3.72-3.75-3.72c-2.072 0-3.75 1.666-3.75 3.72 0 2.054 1.678 3.72 3.75 3.72z" fill="var(--mobile-hidden, #FDC305)"/>
        <path d="m41.232 31.246-3.13 1.3 1.15-5.585-7.5 9.68 3.13-1.298-1.15 5.594 7.5-9.691zm-7.39 3.799 4.16-5.366-.81 3.967 2-.813-4.19 5.376.81-3.968-1.97.804zm-1.4-1.458c.618 0 1.12-.498 1.12-1.111 0-.614-.502-1.111-1.12-1.111-.619 0-1.12.497-1.12 1.11 0 .614.501 1.112 1.12 1.112zm6.52 4.027c.436 0 .79-.35.79-.784a.787.787 0 0 0-.79-.783c-.436 0-.79.35-.79.783 0 .433.354.784.79.784zm.96-2.152c.193 0 .35-.156.35-.348a.349.349 0 0 0-.35-.347.349.349 0 0 0-.35.347c0 .192.157.348.35.348z" fill="var(--mobile-hidden, #111)"/>
      </g>

      <path id="hat" d="M45.932 19.194a89.015 89.015 0 0 0-1.4-16.397s-.15-1.29-.87-.238a14.057 14.057 0 0 0-1.2 3.968 71.461 71.461 0 0 0-12.82.337c-.82-2.728-2.22-3.968-2.89-3.64-.67.327-.75 3.253-.75 3.253l-.33 14.046a143.942 143.942 0 0 1 20.26-1.33zM36.002 23.509c-.115.225-.271.427-.46.595-.285.227-.635.36-1 .377a2.193 2.193 0 0 1-1.54-.437 1.995 1.995 0 0 1-.53-.446 1.001 1.001 0 0 0-.36-.248s.75 4.077 2.57 4.731c1.82.655 2.16-.753 2.21-1.13a5.55 5.55 0 0 0-.82-3.214c0-.298-.02-.1-.07-.228z" fill="#F06351"/>
      <path id="collar" d="M45.882 20.99a57.22 57.22 0 0 0-5.09 5.167 31.789 31.789 0 0 1-5.31 4.86c-.22-.525-1.63-1.507-1.63-1.507s-3.14-2.133-5.2-3.81a31.78 31.78 0 0 1-3.14-2.975l-2-.109a22.62 22.62 0 0 0 12 8.769c.86-.14 3.28-1.855 5.09-3.254a57.431 57.431 0 0 0 6-5.862 6.314 6.314 0 0 0 1.14-1.984c-1.14.377-1.86.704-1.86.704z" fill="#F06351"/>
      <path id="panties" d="M45.352 46.74c.13-1.062.2-2.47.24-4.028l-8.15 2.153a64.434 64.434 0 0 1-7.8 1.756l1.11 4.96c0 .108 0 .218.07.327a32.398 32.398 0 0 0 4.76 2.53 42.484 42.484 0 0 0 6.88-4.098v.06a15.115 15.115 0 0 0 2.89-3.66z" fill="var(--mobile-hidden, #E55645)"/>
      <path id="lineaments" d="M32.002 16.09c-.05-.1 1 .674 1.41.912.41.238.61.416.61.585 0 .169-.26.337-.62.337s-.92-.119-1-.258c-.08-.139.6 0 .94 0h.29a8.05 8.05 0 0 1-1.63-1.577zm7.5.108s-1 1.27-1.09 1.33c-.09.059-.17.337.19.287a8.146 8.146 0 0 0 1.22-.278c.11-.06.07-.198-.12-.178-.19.02-.68.05-1 .109l.85-1.26s.03-.119-.05-.01zm-3.14 6.06a2.293 2.293 0 0 0 1.09-.991c.28-.655 0-.903-.44-.992-.606-.11-1.23.01-1.75.337-.39.367-.34.724 0 .992.337.263.707.483 1.1.655zm-2.06 2.382a3.518 3.518 0 0 1-2.35-1.419.148.148 0 0 1 0-.198.139.139 0 0 1 .1-.042.14.14 0 0 1 .1.042 3.21 3.21 0 0 0 2.11 1.3 2.122 2.122 0 0 0 1.64-.993l.14-.188.1.218s.38.754 1 .794c.62.04 1.06-.417 1.63-1.28a.144.144 0 0 1 .2-.04.143.143 0 0 1 .04.199c-.667.972-1.297 1.438-1.89 1.398a1.558 1.558 0 0 1-1.12-.724 2.255 2.255 0 0 1-1.7.933z"/>
      <path id="rays" d="m65.223 3.472-8.46 9.364-1.22-1.974L63.693 0l1.53 3.472zm-2.57 13.649 5.54-4.077-.78-3.71-5.4 4.771.64 3.016zm-2.73 31.85 6.13 3.155 3.01-2.321-6.69-2.728-2.45 1.895zM1.95 5.922 5.02 2.59l9.29 8.927-1.22 2.262L1.95 5.922zM7.38 16.15l-4.7-3.105-2.4 3.839 5.15 2.38 1.95-3.114zm6.53 35.977-4.55 3.323L12.16 59l4.02-3.988-2.27-2.886z" fill="var(--mobile-hidden, var(--tablet-hidden,#FDC305))"/>
    </g>

    <g id="logo">
      <path d="M85.664 41.661a8.173 8.173 0 0 1-1.4-5.148v-7.44a8.3 8.3 0 0 1 1.38-5.197c.927-1.184 2.51-1.773 4.75-1.766 2.24.007 3.757.526 4.55 1.557a6.627 6.627 0 0 1 1.33 4.454v1.746h-4.14v-1.895a9.827 9.827 0 0 0-.13-1.488 1.66 1.66 0 0 0-.47-.942 1.563 1.563 0 0 0-1.15-.367 1.47 1.47 0 0 0-1.5.744 5.388 5.388 0 0 0-.34 2.182v9.444a4.709 4.709 0 0 0 .39 2.182 1.49 1.49 0 0 0 1.45.724c.282.04.569-.01.82-.142.251-.132.455-.34.58-.592a5.748 5.748 0 0 0 .31-2.172V35.56h4.14v1.716a7.147 7.147 0 0 1-1.23 4.572c-.88 1.092-2.4 1.627-4.56 1.627-2.16 0-3.85-.595-4.78-1.815zm16.251-19.263h4.74l4 20.83h-3.94l-.71-4.602h-3.32l-.8 4.573h-4l4.03-20.801zm3.65 13.61-1.26-8.373-1.25 8.372h2.51zm8.16-10.476h-3.24v-3.134h10.72v3.134h-3.2V43.2h-4.29l.01-17.667z" fill="#111"/>
      <path d="M129.616 22.398h8.13v2.162h-5.2v6.874h4.22v2.054h-4.22v7.627h5.25V43.2h-8.18V22.398zm10.541 0h2l6 13.817V22.398h2.44v20.83h-1.87l-6-14.204v14.175h-2.48l-.09-20.801zm13.671 0h8.12v2.162h-5.2v6.874h4.26v2.054h-4.22v7.627h5.22V43.2h-8.18V22.398zm10.53 0h4.22a7.042 7.042 0 0 1 4.67 1.3c1 .862 1.49 2.27 1.49 4.225 0 2.645-.863 4.262-2.59 4.85l3 10.426h-2.84l-2.75-9.761h-2.27v9.76h-2.93v-20.8zm4 8.927a3.891 3.891 0 0 0 2.7-.754 3.536 3.536 0 0 0 .82-2.688 5.76 5.76 0 0 0-.29-1.984 1.883 1.883 0 0 0-1-1.071 4.794 4.794 0 0 0-2.05-.347h-1.29v6.884l1.11-.04zm10.321 10.336a9.113 9.113 0 0 1-1.27-5.307v-6.943a13.27 13.27 0 0 1 .5-3.968 4.443 4.443 0 0 1 1.74-2.39 5.947 5.947 0 0 1 3.36-.834 5.298 5.298 0 0 1 4.18 1.468 6.904 6.904 0 0 1 1.28 4.593v.774h-2.75v-.645a11.309 11.309 0 0 0-.18-2.301 1.98 1.98 0 0 0-.76-1.22 3.02 3.02 0 0 0-1.72-.407 2.534 2.534 0 0 0-1.81.555 2.53 2.53 0 0 0-.77 1.468 14.484 14.484 0 0 0-.17 2.47v7.727a7.39 7.39 0 0 0 .59 3.432 2.85 2.85 0 0 0 4.47-.09 7.994 7.994 0 0 0 .61-3.62v-1.467h-2.66v-2.054h5.3V43.2h-1.81l-.29-2.391a3.661 3.661 0 0 1-1.4 1.969 3.71 3.71 0 0 1-2.33.68 4.698 4.698 0 0 1-2.288-.375 4.656 4.656 0 0 1-1.822-1.42zm16.02-5.803-4.53-13.46h2.72l3.21 10.038 3.16-10.038h2.75l-4.5 13.46v7.34h-2.8l-.01-7.34z" fill="#444"/>
    </g>
  </svg>
</svg>
